<?xml version="1.0" encoding="UTF-8" standalone="no"?>
<!-- Created with Inkscape (http://www.inkscape.org/) -->

<svg
   version="1.1"
   id="svg1"
   width="191.77779"
   height="71.502007"
   viewBox="0 0 191.77779 71.502007"
   xmlns="http://www.w3.org/2000/svg"
   xmlns:svg="http://www.w3.org/2000/svg">
  <defs
     id="defs1" />
  <g
     id="g1"
     transform="translate(-5.6370456,-65.32405)">
    <path
       style="fill:#124c5a;fill-opacity:1"
       d="M 33.234322,135.90659 C 6.3660323,129.57421 -3.5000034,96.663215 15.460132,76.615665 c 13.821386,-14.61407 35.282534,-15.09421 50.922156,-1.13924 11.634549,10.38132 20.64921,13.96808 35.106112,13.96808 14.4569,0 23.47156,-3.58676 35.10611,-13.96808 7.99892,-7.13729 14.88092,-9.81145 25.39389,-9.86736 30.75072,-0.16354 46.90544,36.629485 25.99815,59.211845 -14.5338,15.69825 -35.75391,15.98621 -52.49815,0.71241 -18.30174,-16.69451 -45.847281,-17.89472 -64.333026,-2.8031 -10.555829,8.6177 -13.097393,10.21226 -19.52231,12.24818 -6.690355,2.12002 -12.169059,2.39641 -18.398742,0.92819 z M 170.84325,123.61736 c 24.43876,-10.21117 17.33442,-46.703435 -9.07273,-46.603135 -7.29521,0.0277 -12.13185,2.19823 -19.74631,8.86147 -6.65083,5.82 -19.25,12.55459 -25.44551,13.60131 -2.24967,0.38008 -4.0903,1.061945 -4.0903,1.515255 0,0.45331 1.84063,1.13518 4.0903,1.51526 6.19551,1.04672 18.79468,7.78131 25.44551,13.60131 9.7688,8.54845 19.96942,11.20613 28.81904,7.50853 z"
       id="path3991" />
  </g>
</svg>
