<?xml version="1.0" encoding="utf-8"?>
<!-- Generator: Adobe Illustrator 26.0.3, SVG Export Plug-In . SVG Version: 6.00 Build 0)  -->
<svg version="1.1" id="Layer_1" xmlns="http://www.w3.org/2000/svg" xmlns:xlink="http://www.w3.org/1999/xlink" x="0px" y="0px"
	 viewBox="0 0 106.6 18" style="enable-background:new 0 0 106.6 18;" xml:space="preserve">
<style type="text/css">
	.st0{fill:#054A59;}
</style>
<g>
	<g>
		<path class="st0" d="M30.2,4.3h1.5v1.6h0.1c0.3-0.6,0.6-1.1,1.1-1.4c0.5-0.3,1.1-0.4,1.8-0.4c0.6,0,1.2,0.1,1.7,0.4s0.9,0.6,1.3,1
			s0.6,1,0.8,1.6c0.2,0.6,0.3,1.4,0.3,2.1s-0.1,1.5-0.3,2.1C38.3,12,38,12.6,37.6,13s-0.8,0.8-1.3,1c-0.5,0.2-1.1,0.4-1.7,0.4
			c-1.3,0-2.3-0.6-2.9-1.8h-0.1V18h-1.5V4.3z M34.3,13.1c0.9,0,1.6-0.3,2.1-0.8c0.5-0.5,0.7-1.3,0.7-2.1V8.4c0-0.9-0.2-1.6-0.7-2.1
			c-0.5-0.5-1.2-0.8-2.1-0.8c-0.3,0-0.7,0-1,0.1C33,5.7,32.7,5.8,32.5,6s-0.4,0.4-0.5,0.6c-0.1,0.2-0.2,0.5-0.2,0.8V11
			c0,0.3,0.1,0.6,0.2,0.9c0.1,0.3,0.3,0.5,0.5,0.6c0.2,0.2,0.5,0.3,0.8,0.4C33.6,13,33.9,13.1,34.3,13.1z"/>
		<path class="st0" d="M48.5,14.2c-0.6,0-1-0.2-1.2-0.5c-0.2-0.3-0.4-0.7-0.5-1.2h-0.1c-0.2,0.6-0.6,1.1-1.1,1.4
			c-0.5,0.3-1.1,0.5-1.8,0.5c-1,0-1.9-0.3-2.4-0.8c-0.6-0.5-0.9-1.3-0.9-2.2c0-0.9,0.3-1.6,1-2.1c0.7-0.5,1.7-0.7,3.2-0.7h2v-1
			c0-0.7-0.2-1.2-0.6-1.6c-0.4-0.4-1-0.6-1.8-0.6c-0.6,0-1.1,0.1-1.5,0.4c-0.4,0.3-0.7,0.6-1,1.1L40.9,6c0.3-0.5,0.7-1,1.3-1.4
			c0.6-0.4,1.3-0.6,2.2-0.6c1.2,0,2.1,0.3,2.8,0.9c0.7,0.6,1,1.4,1,2.4v5.4h1.1v1.4H48.5z M44.1,13.1c0.4,0,0.7,0,1.1-0.1
			c0.3-0.1,0.6-0.2,0.8-0.4c0.2-0.2,0.4-0.4,0.5-0.6c0.1-0.2,0.2-0.5,0.2-0.7V9.7h-2c-0.9,0-1.5,0.1-1.9,0.4
			c-0.4,0.3-0.6,0.6-0.6,1.1v0.4c0,0.5,0.2,0.9,0.5,1.1C43,13,43.5,13.1,44.1,13.1z"/>
		<path class="st0" d="M51.5,14.2V4.3h1.5v1.8h0.1c0.2-0.5,0.5-0.9,1-1.3c0.5-0.4,1.1-0.6,1.9-0.6h0.6v1.5h-0.9
			c-0.8,0-1.5,0.2-1.9,0.5c-0.5,0.3-0.7,0.7-0.7,1.2v6.7H51.5z"/>
		<path class="st0" d="M59.4,2c-0.3,0-0.6-0.1-0.7-0.2c-0.1-0.2-0.2-0.4-0.2-0.6V0.9c0-0.3,0.1-0.5,0.2-0.6C58.8,0.1,59,0,59.4,0
			c0.3,0,0.6,0.1,0.7,0.2c0.1,0.2,0.2,0.4,0.2,0.6v0.2c0,0.3-0.1,0.5-0.2,0.6S59.7,2,59.4,2z M58.6,4.3h1.5v9.9h-1.5V4.3z"/>
		<path class="st0" d="M65.6,14.2c-0.5,0-0.9-0.1-1.2-0.4c-0.3-0.3-0.4-0.7-0.4-1.2V5.7h-1.6V4.3h0.9c0.3,0,0.6-0.1,0.7-0.2
			C64,4,64.1,3.7,64.1,3.4V1.6h1.4v2.7h2.2v1.4h-2.2v7.2h2v1.4H65.6z"/>
		<path class="st0" d="M70.1,0h1.5v5.9h0.1c0.2-0.6,0.6-1,1-1.3c0.4-0.3,1-0.5,1.8-0.5c1,0,1.8,0.3,2.4,1c0.6,0.7,0.9,1.6,0.9,2.8
			v6.3h-1.5V8.1c0-1.8-0.7-2.7-2.2-2.7c-0.3,0-0.6,0-0.9,0.1c-0.3,0.1-0.5,0.2-0.8,0.3C72.2,6,72,6.2,71.8,6.5
			c-0.1,0.2-0.2,0.5-0.2,0.8v6.9h-1.5V0z"/>
		<path class="st0" d="M84.7,14.4c-0.7,0-1.3-0.1-1.8-0.4c-0.5-0.2-1-0.6-1.4-1c-0.4-0.5-0.7-1-0.9-1.6s-0.3-1.3-0.3-2.1
			c0-0.8,0.1-1.5,0.3-2.1c0.2-0.6,0.5-1.2,0.9-1.6c0.4-0.5,0.9-0.8,1.4-1s1.2-0.4,1.8-0.4c0.7,0,1.3,0.1,1.8,0.4
			c0.5,0.2,1,0.6,1.3,1c0.4,0.4,0.7,0.9,0.9,1.5C88.9,7.5,89,8.2,89,8.9v0.7h-7.1v0.5c0,0.4,0.1,0.8,0.2,1.2s0.3,0.7,0.6,0.9
			c0.2,0.3,0.6,0.5,0.9,0.6s0.8,0.2,1.2,0.2c0.6,0,1.2-0.1,1.6-0.4c0.5-0.3,0.8-0.7,1.1-1.3l1.1,0.8c-0.3,0.7-0.8,1.2-1.5,1.6
			C86.5,14.2,85.7,14.4,84.7,14.4z M84.7,5.4c-0.4,0-0.8,0.1-1.2,0.2c-0.3,0.1-0.6,0.4-0.9,0.6c-0.2,0.3-0.4,0.6-0.6,0.9
			c-0.1,0.4-0.2,0.8-0.2,1.2v0.1h5.5V8.2c0-0.9-0.2-1.6-0.7-2.1C86.2,5.6,85.5,5.4,84.7,5.4z"/>
		<path class="st0" d="M91.5,14.2V4.3h1.5v1.8h0.1c0.2-0.5,0.5-0.9,1-1.3c0.5-0.4,1.1-0.6,1.9-0.6h0.6v1.5h-0.9
			c-0.8,0-1.5,0.2-1.9,0.5S93.1,7,93.1,7.5v6.7H91.5z"/>
		<path class="st0" d="M105.7,14.2c-0.6,0-1-0.2-1.2-0.5c-0.2-0.3-0.4-0.7-0.5-1.2h-0.1c-0.2,0.6-0.6,1.1-1.1,1.4
			c-0.5,0.3-1.1,0.5-1.8,0.5c-1,0-1.9-0.3-2.4-0.8c-0.6-0.5-0.9-1.3-0.9-2.2c0-0.9,0.3-1.6,1-2.1c0.7-0.5,1.7-0.7,3.2-0.7h2v-1
			c0-0.7-0.2-1.2-0.6-1.6s-1-0.6-1.8-0.6c-0.6,0-1.1,0.1-1.5,0.4c-0.4,0.3-0.7,0.6-1,1.1L98.1,6c0.3-0.5,0.7-1,1.3-1.4
			c0.6-0.4,1.3-0.6,2.2-0.6c1.2,0,2.1,0.3,2.8,0.9c0.7,0.6,1,1.4,1,2.4v5.4h1.1v1.4H105.7z M101.3,13.1c0.4,0,0.7,0,1.1-0.1
			c0.3-0.1,0.6-0.2,0.8-0.4c0.2-0.2,0.4-0.4,0.5-0.6c0.1-0.2,0.2-0.5,0.2-0.7V9.7h-2c-0.9,0-1.5,0.1-1.9,0.4
			c-0.4,0.3-0.6,0.6-0.6,1.1v0.4c0,0.5,0.2,0.9,0.5,1.1C100.2,13,100.7,13.1,101.3,13.1z"/>
	</g>
	<path class="st0" d="M22.8,4.1c-1.4,0-2.7,0.5-3.7,1.5c-2.8,2.8-7.5,2.8-10.3,0c-1-1-2.3-1.5-3.7-1.5C2.3,4.1,0,6.4,0,9.2
		s2.3,5.2,5.2,5.2c1.4,0,2.7-0.5,3.7-1.5c2.8-2.8,7.5-2.8,10.3,0c1,1,2.3,1.5,3.7,1.5c2.9,0,5.2-2.3,5.2-5.2S25.7,4.1,22.8,4.1z
		 M22.8,12.9c-1,0-1.9-0.4-2.6-1.1c-1.5-1.5-3.3-2.3-5.3-2.5V9.2c1.9-0.2,3.8-1.1,5.3-2.5c0.7-0.7,1.6-1.1,2.6-1.1
		c2,0,3.6,1.6,3.6,3.6S24.8,12.9,22.8,12.9z"/>
</g>
</svg>
