<?xml version="1.0" encoding="utf-8"?>
<!-- Generator: Adobe Illustrator 26.0.3, SVG Export Plug-In . SVG Version: 6.00 Build 0)  -->
<svg version="1.1" id="Layer_1" xmlns="http://www.w3.org/2000/svg" xmlns:xlink="http://www.w3.org/1999/xlink" x="0px" y="0px"
	 viewBox="0 0 28 10.4" style="enable-background:new 0 0 28 10.4;" xml:space="preserve">
<style type="text/css">
	.st0{fill:#054A59;}
</style>
<g>
	<path class="st0" d="M22.8,0c-1.4,0-2.7,0.5-3.7,1.5c-2.8,2.8-7.5,2.8-10.3,0C7.9,0.5,6.6,0,5.2,0C2.3,0,0,2.3,0,5.2
		s2.3,5.2,5.2,5.2c1.4,0,2.7-0.5,3.7-1.5c2.8-2.8,7.5-2.8,10.3,0c1,1,2.3,1.5,3.7,1.5c2.9,0,5.2-2.3,5.2-5.2S25.7,0,22.8,0z
		 M22.8,8.8c-1,0-1.9-0.4-2.6-1.1c-1.5-1.5-3.3-2.3-5.3-2.5V5.1c1.9-0.2,3.8-1.1,5.3-2.5c0.7-0.7,1.6-1.1,2.6-1.1
		c2,0,3.6,1.6,3.6,3.6S24.8,8.8,22.8,8.8z"/>
</g>
</svg>
