<?xml version="1.0" encoding="UTF-8" standalone="no"?>
<!-- Created with Inkscape (http://www.inkscape.org/) -->

<svg
   version="1.1"
   id="svg601"
   width="491.37466"
   height="287.36734"
   viewBox="0 0 491.37466 287.36734"
   xmlns="http://www.w3.org/2000/svg"
   xmlns:svg="http://www.w3.org/2000/svg">
  <defs
     id="defs605">
    <clipPath
       clipPathUnits="userSpaceOnUse"
       id="clipPath617">
      <path
         d="M 0,480 H 480 V 0 H 0 Z"
         id="path615" />
    </clipPath>
  </defs>
  <g
     id="g609"
     transform="matrix(1.3333333,0,0,-1.3333333,-74.316002,463.68359)">
    <g
       id="g611">
      <g
         id="g613"
         clip-path="url(#clipPath617)">
        <g
           id="g619"
           transform="translate(266.9482,275.6528)">
          <path
             d="M 0,0 C -26.105,-10.565 -50.24,-16.621 -72.401,-18.168 -62.518,-40.774 -38.384,-34.718 0,0"
             style="fill:#008491;fill-opacity:1;fill-rule:evenodd;stroke:none"
             id="path621" />
        </g>
        <g
           id="g623"
           transform="translate(277.5693,277.3511)">
          <path
             d="M 0,0 C -21.581,-20.739 -44.814,-35.683 -69.699,-44.833 -48.007,-63.294 -24.774,-48.35 0,0"
             style="fill:#008491;fill-opacity:1;fill-rule:evenodd;stroke:none"
             id="path625" />
        </g>
        <g
           id="g627"
           transform="translate(292.6641,297.75)">
          <path
             d="M 0,0 C -17.114,-40.327 -35.191,-66.533 -54.231,-78.619 -21.652,-90.148 -3.575,-63.942 0,0"
             style="fill:#008491;fill-opacity:1;fill-rule:evenodd;stroke:none"
             id="path629" />
        </g>
        <g
           id="g631"
           transform="translate(195.5732,290.6323)">
          <path
             d="M 0,0 C -2.713,-26.855 15.146,-31.92 53.578,-15.193 34.823,-15.932 16.262,-10.671 0,0"
             style="fill:#008491;fill-opacity:1;fill-rule:evenodd;stroke:none"
             id="path633" />
        </g>
        <g
           id="g635"
           transform="translate(219.0923,314.5957)">
          <path
             d="m 0,0 c 4.451,0.052 18.505,1.128 20.175,-3.748 0.653,-1.906 0.563,-4.541 -0.269,-7.903 -1.045,-2.764 -1.893,-5.615 -3.273,-8.24 -0.369,-0.703 -0.778,-1.389 -1.237,-2.038 -3.291,-4.638 -8.716,-3.883 -13.937,-3.735 -11.965,0.34 -15.485,4.908 -16.147,16.554 l 0.02,7.668 C -10.009,-0.358 -4.603,-0.053 0,0 m 18.94,-21.037 7.008,-10.881 7.008,10.881 c 0.5,-0.703 1.034,-1.459 1.606,-2.266 3.952,-5.572 9.952,-4.906 15.942,-4.736 5.163,0.146 8.993,1.08 11.787,2.924 0.95,0.845 1.901,1.722 2.854,2.63 l 0.149,0.143 c 2.265,3.01 3.369,7.313 3.695,13.167 l -0.008,2.8 C 68.724,1.651 69.366,-0.047 67.086,8.008 65.308,7.457 59.841,6.115 57.124,5.37 c 2.031,0.924 3.964,2.041 5.778,3.335 5.525,4.227 7.911,11.309 6.042,17.938 -18.154,-5.797 -29.747,0.02 -37.136,-10.997 0.784,5.162 8.168,9.036 22.152,11.621 -14.144,1.428 -16.608,3.9 -24.071,5.326 -1.813,0.345 -2.946,0.537 -3.941,0.574 C 24.953,33.13 23.821,32.938 22.007,32.593 14.544,31.167 12.08,28.695 -2.064,27.267 11.92,24.682 19.304,20.808 20.089,15.646 12.7,26.663 1.107,20.846 -17.047,26.643 c -1.87,-6.629 0.516,-13.711 6.042,-17.938 1.813,-1.294 3.747,-2.411 5.777,-3.335 -2.717,0.745 -8.184,2.087 -9.962,2.638 -2.28,-8.055 -1.638,-6.357 -1.894,-14.383 l -0.008,-2.8 c 0.326,-5.854 1.429,-10.157 3.694,-13.167 l 0.149,-0.143 c 0.953,-0.908 1.904,-1.785 2.855,-2.63 2.794,-1.844 6.623,-2.778 11.786,-2.924 5.99,-0.17 11.99,-0.836 15.942,4.736 0.573,0.807 1.106,1.563 1.606,2.266 m 4.644,3.865 -2.056,-3.195 4.42,-6.863 v 11.533 c -0.798,-0.002 -1.54,-0.363 -2.034,-0.965 z M 51.896,0 c -4.451,0.052 -18.505,1.128 -20.175,-3.748 -0.653,-1.906 -0.562,-4.541 0.27,-7.903 1.044,-2.764 1.892,-5.615 3.272,-8.24 0.369,-0.703 0.778,-1.389 1.237,-2.038 3.291,-4.638 8.716,-3.883 13.937,-3.735 11.965,0.34 15.485,4.908 16.146,16.554 l -0.019,7.668 C 61.906,-0.358 56.5,-0.053 51.896,0"
             style="fill:#008491;fill-opacity:1;fill-rule:evenodd;stroke:none"
             id="path637" />
        </g>
        <g
           id="g639"
           transform="translate(262.4746,304.9614)">
          <path
             d="m 0,0 c -0.351,-0.79 -0.547,-1.664 -0.547,-2.584 0,-3.51 2.847,-6.356 6.358,-6.356 3.511,0 6.358,2.846 6.358,6.356 0,3.513 -2.847,6.358 -6.358,6.358 C 4.891,3.774 4.018,3.579 3.229,3.227 3.721,2.808 4.032,2.183 4.032,1.485 4.032,0.221 3.008,-0.804 1.743,-0.804 1.045,-0.804 0.42,-0.492 0,0"
             style="fill:#008491;fill-opacity:1;fill-rule:evenodd;stroke:none"
             id="path641" />
        </g>
        <g
           id="g643"
           transform="translate(228.1528,302.3774)">
          <path
             d="M 0,0 C 0,0.92 -0.196,1.794 -0.547,2.584 -0.966,2.092 -1.592,1.78 -2.29,1.78 c -1.264,0 -2.289,1.025 -2.289,2.289 0,0.698 0.312,1.323 0.804,1.742 -0.789,0.352 -1.662,0.547 -2.582,0.547 -3.512,0 -6.358,-2.845 -6.358,-6.358 0,-3.51 2.846,-6.356 6.358,-6.356 C -2.846,-6.356 0,-3.51 0,0"
             style="fill:#008491;fill-opacity:1;fill-rule:evenodd;stroke:none"
             id="path645" />
        </g>
        <g
           id="g647"
           transform="translate(79.438,143.6562)">
          <path
             d="M 0,0 C 10.955,0 19.718,7.502 21.909,18.788 H 13.345 C 11.552,12.282 6.241,7.967 0,7.967 c -8.896,0 -14.805,6.306 -14.805,15.734 0,9.428 5.909,15.735 14.805,15.735 5.577,0 10.755,-3.917 12.946,-9.76 h 8.763 C 19.054,40.299 10.357,47.402 0,47.402 -14.208,47.402 -23.701,37.908 -23.701,23.701 -23.701,9.494 -14.208,0 0,0 m 43.353,0 c 10.821,0 17.991,7.037 17.991,17.527 0,10.49 -7.17,17.527 -17.991,17.527 -10.822,0 -17.992,-7.037 -17.992,-17.527 C 25.361,7.037 32.531,0 43.353,0 m 0,7.037 c -6.042,0 -10.025,4.183 -10.025,10.49 0,6.307 3.983,10.49 10.025,10.49 6.041,0 10.024,-4.183 10.024,-10.49 0,-6.307 -3.983,-10.49 -10.024,-10.49 M 82.324,0 c 4.049,0 8.497,1.858 11.02,4.581 V 0.93 h 7.967 v 45.543 h -7.967 v -16 c -2.523,2.722 -6.971,4.581 -11.02,4.581 -10.49,0 -17.528,-7.037 -17.528,-17.527 C 64.796,7.037 71.834,0 82.324,0 m 0.796,7.037 c -6.241,0 -10.356,4.183 -10.356,10.49 0,6.307 4.115,10.49 10.356,10.49 6.108,0 10.224,-4.183 10.224,-10.49 0,-6.307 -4.116,-10.49 -10.224,-10.49 M 124.083,0 c 8.1,0 15.004,4.913 17.195,12.216 h -8.1 C 131.651,8.896 128,6.639 124.083,6.639 c -5.179,0 -9.162,3.452 -9.892,8.697 h 27.22 L 142.075,16 v 1.527 c 0,10.49 -7.171,17.527 -17.992,17.527 -10.822,0 -17.992,-7.037 -17.992,-17.527 C 106.091,7.037 113.261,0 124.083,0 m -9.361,21.975 c 1.527,4.116 4.913,6.44 9.361,6.44 4.448,0 7.834,-2.324 9.361,-6.44 z M 169.228,0 c 10.954,0 19.718,7.502 21.908,18.788 h -8.563 C 180.78,12.282 175.468,7.967 169.228,7.967 c -8.896,0 -14.805,6.306 -14.805,15.734 0,9.428 5.909,15.735 14.805,15.735 5.577,0 10.755,-3.917 12.946,-9.76 h 8.763 c -2.655,10.623 -11.353,17.726 -21.709,17.726 -14.207,0 -23.701,-9.494 -23.701,-23.701 C 145.527,9.494 155.021,0 169.228,0 m 26.689,0.93 h 7.967 v 45.543 h -7.967 z M 225.925,0 c 3.916,0 8.232,1.793 10.755,4.515 V 0.93 h 7.967 v 33.194 h -7.967 v -3.585 c -2.523,2.723 -6.839,4.515 -10.755,4.515 -10.357,0 -17.261,-7.037 -17.261,-17.527 C 208.664,7.037 215.568,0 225.925,0 m 0.796,7.037 c -6.041,0 -10.091,4.183 -10.091,10.49 0,6.307 4.05,10.49 10.091,10.49 5.976,0 9.959,-4.183 9.959,-10.49 0,-6.307 -3.983,-10.49 -9.959,-10.49 M 250.754,0.93 h 7.967 v 19.651 c 0,4.448 3.519,7.436 8.83,7.436 h 2.722 v 6.107 c -0.93,0.398 -2.323,0.664 -3.519,0.664 -3.053,0 -6.306,-1.858 -8.033,-4.581 v 3.917 h -7.967 z m 23.768,38.24 h 7.967 v 7.303 h -7.967 z m 0,-38.24 h 7.967 v 33.194 h -7.967 z M 303.734,0 c 2.19,0 4.448,0.398 5.642,0.93 v 5.709 h -5.775 c -1.726,0 -2.921,1.129 -2.921,2.789 v 18.057 h 8.364 v 6.639 h -8.364 v 12.349 h -7.967 V 34.124 h -5.311 v -6.639 h 5.311 V 9.428 C 292.713,3.784 297.094,0 303.734,0 m 14.605,-11.419 h 8.565 l 17.926,45.543 h -8.565 l -8.166,-20.846 -8.232,20.846 h -8.498 l 12.68,-31.07 z"
             style="fill:#333333;fill-opacity:1;fill-rule:nonzero;stroke:none"
             id="path649" />
        </g>
      </g>
    </g>
  </g>
</svg>
